<svg width="20" height="20" viewBox="0 0 20 20" fill="none" xmlns="http://www.w3.org/2000/svg">
<g clip-path="url(#clip0_262_37927)">
<path d="M4.66669 0V6.66667M15.3334 0V6.66667M4.00002 10H8.00002M16 10H12M4.00002 14H8.00002M12 14H16M2.00002 3.33333H18C18.3536 3.33333 18.6928 3.47381 18.9428 3.72386C19.1929 3.97391 19.3334 4.31304 19.3334 4.66667V18C19.3334 18.3536 19.1929 18.6928 18.9428 18.9428C18.6928 19.1929 18.3536 19.3333 18 19.3333H2.00002C1.6464 19.3333 1.30726 19.1929 1.05721 18.9428C0.807163 18.6928 0.666687 18.3536 0.666687 18V4.66667C0.666687 4.31304 0.807163 3.97391 1.05721 3.72386C1.30726 3.47381 1.6464 3.33333 2.00002 3.33333Z" stroke="#E5E5E5" stroke-width="1.46667"/>
</g>
<defs>
<clipPath id="clip0_262_37927">
<rect width="20" height="20" fill="white"/>
</clipPath>
</defs>
</svg>
