<svg width="20" height="20" viewBox="0 0 20 20" fill="none" xmlns="http://www.w3.org/2000/svg">
<path fill-rule="evenodd" clip-rule="evenodd" d="M33.8338 13.8099C33.8338 17.2709 32.9738 21.7849 31.6508 21.0999C31.1098 22.8666 29.974 24.3917 28.4363 25.416C26.8986 26.4404 25.0537 26.901 23.215 26.7196C21.3762 26.5382 19.6569 25.726 18.349 24.4209C17.0411 23.1158 16.2252 21.3983 16.0398 19.5599C14.7268 17.2629 13.0048 12.6599 17.4318 9.07192C17.5118 9.04592 17.5598 8.82992 17.6318 8.51192C17.9058 7.30892 18.5128 4.63492 22.3418 5.14592C25.2948 5.53892 33.8338 7.06292 33.8338 13.8099ZM30.0278 15.9929C30.0278 15.9929 29.5758 17.3149 29.9998 18.7879C29.9943 20.3585 29.3732 21.8643 28.2698 22.982C27.1664 24.0998 25.6687 24.7403 24.0984 24.7661C22.528 24.7919 21.0101 24.2009 19.8706 23.12C18.7311 22.0391 18.0609 20.5545 18.0038 18.9849C18.1488 18.4349 18.1488 17.5039 18.1478 16.4689C18.1468 14.6019 18.1448 12.3989 18.9998 11.5009C24.9888 15.4899 30.0278 15.9929 30.0278 15.9929Z" fill="#1E2640"/>
<path d="M13 36C13 34.918 13.573 33.97 14.433 33.442C14.4003 33.3175 14.3696 33.1925 14.341 33.067C14.1893 32.3838 14.0708 31.6936 13.986 30.999C13.9001 30.3334 13.8483 29.6638 13.831 28.993C9.61 30.65 6 33.538 6 36.57V42H42V36.57C42 33.666 38.69 30.895 34.702 29.21V29.238C34.72 29.848 34.686 30.548 34.62 31.221C34.56 31.845 34.471 32.467 34.364 33H35C35.1857 33.0001 35.3676 33.0518 35.5255 33.1495C35.6834 33.2472 35.811 33.3869 35.894 33.553L36.894 35.553C36.964 35.692 37 35.845 37 36V38C37 38.2652 36.8946 38.5195 36.7071 38.7071C36.5196 38.8946 36.2652 39 36 39H34V37H35V36.236L34.382 35H31.618L31 36.236V37H32V39H30C29.7348 39 29.4804 38.8946 29.2929 38.7071C29.1054 38.5195 29 38.2652 29 38V36C29 35.845 29.036 35.692 29.106 35.553L30.106 33.553C30.189 33.3869 30.3166 33.2472 30.4745 33.1495C30.6324 33.0518 30.8143 33.0001 31 33H32.315C32.337 32.914 32.359 32.819 32.381 32.714C32.481 32.243 32.57 31.646 32.63 31.029C32.69 30.411 32.718 29.798 32.703 29.294C32.6993 29.0852 32.6829 28.8768 32.654 28.67C32.632 28.528 32.61 28.463 32.606 28.449C32.605 28.446 32.604 28.445 32.606 28.447L32.609 28.446C32.0784 28.2811 31.5417 28.1367 31 28.013C30.497 27.898 29.977 28.59 29.75 29.023H18C17.9708 28.9672 17.9421 28.9112 17.914 28.855C17.702 28.433 17.441 27.912 17 28.013C16.615 28.1 16.23 28.2 15.845 28.31C15.8326 28.4853 15.8273 28.6611 15.829 28.837C15.833 29.39 15.886 30.067 15.971 30.751C16.056 31.433 16.171 32.097 16.291 32.621C16.325 32.772 16.359 32.908 16.391 33.025C16.9627 33.1001 17.5007 33.3384 17.9404 33.7114C18.3802 34.0844 18.7032 34.5762 18.8707 35.128C19.0381 35.6797 19.0431 36.2681 18.8848 36.8226C18.7266 37.3771 18.4119 37.8742 17.9785 38.2545C17.545 38.6348 17.0111 38.8821 16.4408 38.9668C15.8704 39.0515 15.2877 38.9701 14.7624 38.7322C14.2371 38.4943 13.7915 38.1101 13.479 37.6255C13.1664 37.141 13.0001 36.5766 13 36Z" fill="#1E2640"/>
<path d="M17 35.9999C17 36.5739 16.538 37.0149 16 37.0149C15.462 37.0149 15 36.5749 15 35.9999C15 35.4259 15.462 34.9849 16 34.9849C16.538 34.9849 17 35.4249 17 35.9999Z" fill="#1E2640"/>
</svg>
