<svg width="24" height="24" viewBox="0 0 24 24" fill="#E5E5E5" xmlns="http://www.w3.org/2000/svg">
  <path d="M9 14.917V15.5C9 16.6935 9.47411 17.8381 10.318 18.682C11.1619 19.5259 12.3065 20 13.5 20C14.6935 20 15.8381 19.5259 16.682 18.682C17.5259 17.8381 18 16.6935 18 15.5V13.83C17.3325 13.5941 16.7699 13.1298 16.4116 12.5192C16.0534 11.9086 15.9225 11.191 16.0422 10.4932C16.1619 9.79545 16.5244 9.16246 17.0656 8.70613C17.6069 8.2498 18.292 7.99951 19 7.99951C19.708 7.99951 20.3931 8.2498 20.9344 8.70613C21.4756 9.16246 21.8381 9.79545 21.9578 10.4932C22.0775 11.191 21.9466 11.9086 21.5884 12.5192C21.2301 13.1298 20.6675 13.5941 20 13.83V15.5C20 17.2239 19.3152 18.8772 18.0962 20.0962C16.8772 21.3152 15.2239 22 13.5 22C11.7761 22 10.1228 21.3152 8.90381 20.0962C7.68482 18.8772 7 17.2239 7 15.5V14.917C5.60193 14.6803 4.33281 13.9562 3.4176 12.8732C2.50239 11.7901 2.00018 10.418 2 9L2 4C2 3.46957 2.21071 2.96086 2.58579 2.58579C2.96086 2.21071 3.46957 2 4 2H5C5.26522 2 5.51957 2.10536 5.70711 2.29289C5.89464 2.48043 6 2.73478 6 3C6 3.26522 5.89464 3.51957 5.70711 3.70711C5.51957 3.89464 5.26522 4 5 4H4V9C4 10.0609 4.42143 11.0783 5.17157 11.8284C5.92172 12.5786 6.93913 13 8 13C9.06087 13 10.0783 12.5786 10.8284 11.8284C11.5786 11.0783 12 10.0609 12 9V4H11C10.7348 4 10.4804 3.89464 10.2929 3.70711C10.1054 3.51957 10 3.26522 10 3C10 2.73478 10.1054 2.48043 10.2929 2.29289C10.4804 2.10536 10.7348 2 11 2H12C12.5304 2 13.0391 2.21071 13.4142 2.58579C13.7893 2.96086 14 3.46957 14 4V9C13.9998 10.418 13.4976 11.7901 12.5824 12.8732C11.6672 13.9562 10.3981 14.6803 9 14.917ZM19 12C19.2652 12 19.5196 11.8946 19.7071 11.7071C19.8946 11.5196 20 11.2652 20 11C20 10.7348 19.8946 10.4804 19.7071 10.2929C19.5196 10.1054 19.2652 10 19 10C18.7348 10 18.4804 10.1054 18.2929 10.2929C18.1054 10.4804 18 10.7348 18 11C18 11.2652 18.1054 11.5196 18.2929 11.7071C18.4804 11.8946 18.7348 12 19 12Z" fill="rgba(231, 229, 228, var(--tw-text-opacity))"/>
</svg>
