<svg width="24" height="24" viewBox="0 0 24 24" fill="none" xmlns="http://www.w3.org/2000/svg">
<path d="M15.5 12V5.5C15.5 5.04037 15.4095 4.58525 15.2336 4.16061C15.0577 3.73597 14.7999 3.35013 14.4749 3.02513C14.1499 2.70012 13.764 2.44231 13.3394 2.26642C12.9148 2.09053 12.4596 2 12 2C11.5404 2 11.0852 2.09053 10.6606 2.26642C10.236 2.44231 9.85013 2.70012 9.52513 3.02513C9.20012 3.35013 8.94231 3.73597 8.76642 4.16061C8.59053 4.58525 8.5 5.04037 8.5 5.5V12C8.5 12.4596 8.59053 12.9148 8.76642 13.3394C8.94231 13.764 9.20012 14.1499 9.52513 14.4749C9.85013 14.7999 10.236 15.0577 10.6606 15.2336C11.0852 15.4095 11.5404 15.5 12 15.5C12.4596 15.5 12.9148 15.4095 13.3394 15.2336C13.764 15.0577 14.1499 14.7999 14.4749 14.4749C14.7999 14.1499 15.0577 13.764 15.2336 13.3394C15.4095 12.9148 15.5 12.4596 15.5 12Z" stroke="#E7E5E4" stroke-width="1.6" stroke-linejoin="round"/>
<path d="M4.5 11.5C4.5 15.642 7.858 19 12 19M12 19C12.8765 19 13.718 18.85 14.5 18.5735M12 19V22M19.5 11.5C19.5014 12.5324 19.2889 13.5538 18.876 14.5M21 21L3 3" stroke="#E7E5E4" stroke-width="1.6" stroke-linecap="round" stroke-linejoin="round"/>
</svg>
