<svg width="24" height="24" viewBox="0 0 24 24" fill="none" xmlns="http://www.w3.org/2000/svg">
<path d="M12 15C13.6569 15 15 13.6569 15 12C15 10.3431 13.6569 9 12 9C10.3431 9 9 10.3431 9 12C9 13.6569 10.3431 15 12 15Z" stroke="#E7E5E4" stroke-width="1.6"/>
<path d="M3.66096 10.64C4.13396 10.936 4.43796 11.442 4.43796 12C4.43796 12.558 4.13396 13.064 3.66096 13.36C3.33996 13.563 3.13196 13.724 2.98496 13.916C2.82505 14.1244 2.70778 14.3623 2.63983 14.6161C2.57188 14.8699 2.5546 15.1345 2.58896 15.395C2.64096 15.789 2.87396 16.193 3.33896 17C3.80596 17.807 4.03896 18.21 4.35396 18.453C4.5624 18.6129 4.8003 18.7302 5.05407 18.7981C5.30784 18.8661 5.57251 18.8834 5.83296 18.849C6.07296 18.817 6.31596 18.719 6.65196 18.541C6.89242 18.4094 7.16239 18.3411 7.4365 18.3425C7.71061 18.3439 7.97986 18.415 8.21896 18.549C8.70196 18.829 8.98896 19.344 9.00896 19.902C9.02296 20.282 9.05896 20.542 9.15196 20.765C9.25248 21.0078 9.39986 21.2284 9.58569 21.4143C9.77151 21.6001 9.99214 21.7475 10.235 21.848C10.602 22 11.068 22 12 22C12.932 22 13.398 22 13.765 21.848C14.0078 21.7475 14.2284 21.6001 14.4142 21.4143C14.6001 21.2284 14.7474 21.0078 14.848 20.765C14.94 20.542 14.977 20.282 14.991 19.902C15.011 19.344 15.298 18.828 15.781 18.549C16.0201 18.415 16.2893 18.3439 16.5634 18.3425C16.8375 18.3411 17.1075 18.4094 17.348 18.541C17.684 18.719 17.928 18.817 18.168 18.849C18.6936 18.9181 19.2253 18.7757 19.646 18.453C19.961 18.211 20.194 17.807 20.66 17C20.868 16.64 21.029 16.361 21.149 16.127M20.339 13.361C20.1048 13.2187 19.9107 13.0192 19.7748 12.7814C19.6389 12.5435 19.5657 12.275 19.562 12.001C19.562 11.442 19.866 10.936 20.339 10.639C20.66 10.437 20.867 10.276 21.015 10.084C21.1749 9.87556 21.2921 9.63767 21.3601 9.38389C21.428 9.13012 21.4453 8.86545 21.411 8.605C21.359 8.211 21.126 7.807 20.661 7C20.194 6.193 19.961 5.79 19.646 5.547C19.4375 5.38709 19.1996 5.26981 18.9459 5.20187C18.6921 5.13392 18.4274 5.11664 18.167 5.151C17.927 5.183 17.684 5.281 17.347 5.459C17.1066 5.59042 16.8368 5.65862 16.5629 5.65722C16.289 5.65582 16.0199 5.58486 15.781 5.451C15.5454 5.31091 15.3493 5.11324 15.2112 4.87657C15.073 4.6399 14.9972 4.37199 14.991 4.098C14.977 3.718 14.941 3.458 14.848 3.235C14.7474 2.99218 14.6001 2.77155 14.4142 2.58572C14.2284 2.3999 14.0078 2.25251 13.765 2.152C13.398 2 12.932 2 12 2C11.068 2 10.602 2 10.235 2.152C9.99214 2.25251 9.77151 2.3999 9.58569 2.58572C9.39986 2.77155 9.25248 2.99218 9.15196 3.235C9.05996 3.458 9.02296 3.718 9.00896 4.098C9.00273 4.37199 8.92696 4.6399 8.78877 4.87657C8.65059 5.11324 8.45451 5.31091 8.21896 5.451C7.97986 5.58504 7.71061 5.6561 7.4365 5.6575C7.16239 5.6589 6.89242 5.59059 6.65196 5.459C6.31596 5.281 6.07196 5.183 5.83196 5.151C5.30628 5.08187 4.77466 5.22431 4.35396 5.547C4.03996 5.79 3.80596 6.193 3.33996 7C3.13196 7.36 2.97096 7.639 2.85096 7.873" stroke="#E7E5E4" stroke-width="1.6" stroke-linecap="round"/>
</svg>
