<svg width="24" height="24" viewBox="0 0 24 24" fill="none" xmlns="http://www.w3.org/2000/svg">
<path d="M3.40005 16.4L1.10005 14.15C0.900049 13.95 0.800049 13.7167 0.800049 13.45C0.800049 13.1833 0.900049 12.95 1.10005 12.75C2.56672 11.1667 4.25838 9.97933 6.17505 9.188C8.09172 8.39667 10.0334 8.00067 12 8C13.9667 8 15.9044 8.396 17.813 9.188C19.7217 9.98 21.4174 11.1673 22.9 12.75C23.1 12.95 23.2001 13.1833 23.2001 13.45C23.2001 13.7167 23.1 13.95 22.9 14.15L20.6 16.4C20.4167 16.5833 20.204 16.6833 19.962 16.7C19.72 16.7167 19.4994 16.65 19.3 16.5L16.4 14.3C16.2667 14.2 16.1667 14.0833 16.1 13.95C16.0334 13.8167 16 13.6667 16 13.5V10.65C15.3667 10.45 14.7167 10.2917 14.05 10.175C13.3834 10.0583 12.7 10 12 10C11.3 10 10.6167 10.0583 9.95005 10.175C9.28338 10.2917 8.63338 10.45 8.00005 10.65V13.5C8.00005 13.6667 7.96672 13.8167 7.90005 13.95C7.83338 14.0833 7.73338 14.2 7.60005 14.3L4.70005 16.5C4.50005 16.65 4.27905 16.7167 4.03705 16.7C3.79505 16.6833 3.58272 16.5833 3.40005 16.4ZM6.00005 11.45C5.51672 11.7 5.05005 11.9877 4.60005 12.313C4.15005 12.6383 3.68338 13.0007 3.20005 13.4L4.20005 14.4L6.00005 13V11.45ZM18 11.5V13L19.8 14.4L20.8 13.45C20.3167 13.0167 19.85 12.6417 19.4 12.325C18.95 12.0083 18.4834 11.7333 18 11.5Z" fill="#E7E5E4"/>
</svg>
