<svg width="24" height="24" viewBox="0 0 24 24" fill="none" xmlns="http://www.w3.org/2000/svg">
<path d="M21.995 6.25C21.995 5.65326 21.7579 5.08097 21.336 4.65901C20.914 4.23705 20.3417 4 19.745 4H4.25C3.65326 4 3.08097 4.23705 2.65901 4.65901C2.23705 5.08097 2 5.65326 2 6.25V17.755C2 18.3517 2.23705 18.924 2.65901 19.346C3.08097 19.7679 3.65326 20.005 4.25 20.005H14.008C14.044 19.578 14.202 19.158 14.486 18.799L14.72 18.504H8.499L8.5 15.75L8.507 15.693C8.51984 15.6382 8.55083 15.5893 8.59493 15.5542C8.63904 15.5192 8.69368 15.5001 8.75 15.5H15.245L15.302 15.507C15.3568 15.5198 15.4057 15.5508 15.4408 15.5949C15.4758 15.639 15.4949 15.6937 15.495 15.75V17.561C15.9 17.1762 16.4364 16.9602 16.995 16.957V15.75L16.989 15.607C16.9531 15.1691 16.7538 14.7608 16.4307 14.463C16.1076 14.1653 15.6843 14 15.245 14H8.75L8.606 14.006C8.1683 14.0421 7.76019 14.2415 7.46268 14.5646C7.16517 14.8877 7.00002 15.3108 7 15.75L6.999 18.504H4.25C4.05109 18.504 3.86032 18.425 3.71967 18.2843C3.57902 18.1437 3.5 17.9529 3.5 17.754V6.25C3.5 6.05109 3.57902 5.86032 3.71967 5.71967C3.86032 5.57902 4.05109 5.5 4.25 5.5H19.745C19.9439 5.5 20.1347 5.57902 20.2753 5.71967C20.416 5.86032 20.495 6.05109 20.495 6.25V10.023C20.83 9.973 21.182 9.998 21.525 10.111L21.955 10.251L21.995 10.265V6.25ZM15 10C15 9.20435 14.6839 8.44129 14.1213 7.87868C13.5587 7.31607 12.7956 7 12 7C11.2044 7 10.4413 7.31607 9.87868 7.87868C9.31607 8.44129 9 9.20435 9 10C9 10.7956 9.31607 11.5587 9.87868 12.1213C10.4413 12.6839 11.2044 13 12 13C12.7956 13 13.5587 12.6839 14.1213 12.1213C14.6839 11.5587 15 10.7956 15 10ZM10.5 10C10.5 9.60218 10.658 9.22064 10.9393 8.93934C11.2206 8.65804 11.6022 8.5 12 8.5C12.3978 8.5 12.7794 8.65804 13.0607 8.93934C13.342 9.22064 13.5 9.60218 13.5 10C13.5 10.3978 13.342 10.7794 13.0607 11.0607C12.7794 11.342 12.3978 11.5 12 11.5C11.6022 11.5 11.2206 11.342 10.9393 11.0607C10.658 10.7794 10.5 10.3978 10.5 10ZM19.192 12.995L19.668 11.79C19.91 11.176 20.588 10.857 21.216 11.062L21.647 11.203C22.371 11.44 22.973 12.009 22.997 12.772C23.097 15.882 20.521 20.355 17.784 21.827C17.111 22.189 16.316 21.95 15.749 21.436L15.412 21.131C15.1764 20.9177 15.0306 20.6228 15.0042 20.306C14.9779 19.9893 15.0729 19.6743 15.27 19.425L16.07 18.415C16.36 18.048 16.837 17.885 17.29 17.995L18.582 18.308C19.685 17.578 20.276 16.552 20.356 15.229L19.439 14.265C19.2811 14.0988 19.174 13.891 19.1302 13.666C19.0865 13.441 19.1079 13.2082 19.192 12.995Z" fill="#E5E5E5"/>
</svg>
