<svg width="24" height="24" viewBox="0 0 24 24" fill="none" xmlns="http://www.w3.org/2000/svg">
<path d="M5.82397 3.63195L12 9.80795L18.144 3.66395C18.2797 3.5195 18.4432 3.40394 18.6246 3.32421C18.8061 3.24448 19.0018 3.20221 19.2 3.19995C19.6243 3.19995 20.0313 3.36852 20.3313 3.66858C20.6314 3.96864 20.8 4.3756 20.8 4.79995C20.8037 4.99611 20.7673 5.19097 20.693 5.37256C20.6187 5.55415 20.5081 5.71865 20.368 5.85595L14.144 12L20.368 18.224C20.6317 18.4819 20.7863 18.8313 20.8 19.2C20.8 19.6243 20.6314 20.0313 20.3313 20.3313C20.0313 20.6314 19.6243 20.8 19.2 20.8C18.9961 20.8084 18.7926 20.7744 18.6026 20.7C18.4125 20.6256 18.24 20.5126 18.096 20.368L12 14.192L5.83997 20.352C5.70478 20.4916 5.54327 20.6031 5.36477 20.68C5.18627 20.7569 4.99431 20.7976 4.79997 20.8C4.37562 20.8 3.96865 20.6314 3.6686 20.3313C3.36854 20.0313 3.19997 19.6243 3.19997 19.2C3.19624 19.0038 3.23263 18.8089 3.30692 18.6273C3.38121 18.4457 3.49182 18.2813 3.63197 18.144L9.85597 12L3.63197 5.77595C3.36826 5.51797 3.21363 5.16861 3.19997 4.79995C3.19997 4.3756 3.36854 3.96864 3.6686 3.66858C3.96865 3.36852 4.37562 3.19995 4.79997 3.19995C5.18397 3.20475 5.55197 3.35995 5.82397 3.63195Z" fill="black"/>
</svg>
