<svg width="72" height="72" viewBox="0 0 72 72" fill="none" xmlns="http://www.w3.org/2000/svg">
<path d="M16.9502 60.8799C16.9502 60.8799 14.8502 45.9799 26.8502 45.9799C30.0432 48.1089 32.8772 49.7789 35.9502 49.7729L36.2262 49.8729C39.3002 49.8789 42.1342 48.0089 45.3262 45.8809C56.8902 45.8459 54.8352 60.7809 55.0662 60.8809" fill="white"/>
<path d="M24.917 59.8049C26.5738 59.8049 27.917 58.4618 27.917 56.8049C27.917 55.1481 26.5738 53.8049 24.917 53.8049C23.2601 53.8049 21.917 55.1481 21.917 56.8049C21.917 58.4618 23.2601 59.8049 24.917 59.8049Z" fill="#9B9B9A"/>
<path d="M45.38 45.8679C42.21 47.9809 40.105 49.3679 36.043 49.9569C49.105 50.3679 49.005 56.8679 49.767 60.8679H54.88C54.88 60.8679 57.494 45.8659 45.38 45.8679Z" fill="#D0CFCE"/>
<path d="M26.9629 18.734V10.764C26.9629 10.764 33.6829 11.024 36.1529 8.12402C38.6229 11.024 45.3429 10.764 45.3429 10.764V18.704L36.2729 17.824L26.9629 18.734Z" fill="white"/>
<path d="M34.1729 14.1689H35.6149V15.6109H36.6299V14.1689H38.0718V13.1539H36.6299V11.7119H35.6149V13.1539H34.1729V14.1689Z" fill="#D22F27"/>
<path d="M47.445 29.2731C45.597 29.5391 45.048 24.2731 45.048 24.2731C44.664 29.6431 39.244 23.7861 39.244 23.7861C40.12 27.2061 34.12 23.2101 34.12 23.2101C35.557 26.2571 29.513 22.2451 29.513 22.2451C29.513 22.2451 26.782 28.3201 24.889 29.2211C24.876 29.5041 24.855 29.7851 24.855 30.0731C24.855 37.9011 29.931 44.2461 36.193 44.2461C42.455 44.2461 47.532 37.9011 47.532 30.0731C47.532 29.7631 47.51 29.4611 47.495 29.1571C47.476 29.1961 47.465 29.2351 47.445 29.2731Z" fill="#FCEA2B"/>
<path d="M47.5438 29.0601C47.5138 29.1301 47.4738 29.2001 47.4438 29.2701C45.5938 29.5401 45.0438 24.2701 45.0438 24.2701C44.6638 29.6401 39.2438 23.7901 39.2438 23.7901C40.1238 27.2101 34.1238 23.2101 34.1238 23.2101C35.5538 26.2601 29.5138 22.2501 29.5138 22.2501C29.5138 22.2501 26.7038 28.5001 24.8138 29.2601C24.8038 29.2601 24.8038 29.2701 24.7938 29.2701C24.6538 28.9401 24.5338 28.6101 24.4338 28.2901C23.9391 26.884 23.8359 25.3698 24.1354 23.9096C24.4348 22.4493 25.1256 21.098 26.1338 20.0001C26.0746 19.915 26.0306 19.8202 26.0038 19.7201C25.9691 19.583 25.9589 19.4408 25.9738 19.3001C25.9738 19.2801 25.9638 19.2501 25.9638 19.2301V17.6401C26.5338 16.9201 26.0938 17.1701 26.8538 16.8201L27.3738 18.6301L27.9638 18.1401C33.3286 16.7017 38.9772 16.6983 44.3438 18.1301V16.5801C45.083 17.2858 45.7466 18.0667 46.3238 18.9101C46.3338 18.9201 46.3338 18.9301 46.3438 18.9401C47.0197 19.9084 47.5519 20.9694 47.9238 22.0901C48.7055 24.3748 48.5692 26.8738 47.5438 29.0601Z" fill="#A57939"/>
<path d="M46.0339 10.0399C45.9371 9.94737 45.8225 9.87564 45.6969 9.82919C45.5713 9.78275 45.4375 9.76258 45.3039 9.76994C45.1639 9.76994 44.9939 9.77994 44.8039 9.77994C42.8039 9.76994 38.6039 9.37994 36.9539 7.51994C36.9119 7.45959 36.8614 7.40569 36.8039 7.35994C36.7 7.26983 36.5769 7.20482 36.4439 7.16994C36.4068 7.15069 36.3657 7.14041 36.3239 7.13994C36.2689 7.12288 36.2113 7.1161 36.1539 7.11994C36.0965 7.1167 36.0389 7.12347 35.9839 7.13994C35.9421 7.14041 35.901 7.15069 35.8639 7.16994C35.6783 7.2208 35.5137 7.32937 35.3939 7.47994C35.3839 7.48994 35.3739 7.50994 35.3539 7.51994C34.3025 8.49605 32.9821 9.13363 31.5639 9.34994C30.2243 9.62317 28.861 9.76385 27.4939 9.76994C27.3139 9.76994 27.1439 9.76994 27.0039 9.75994C26.7303 9.75448 26.4653 9.85478 26.2639 10.0399C26.0726 10.2308 25.9647 10.4897 25.9639 10.7599V19.2299C25.9639 19.2499 25.9739 19.2799 25.9739 19.2999C25.959 19.4406 25.9691 19.5828 26.0039 19.7199C26.0307 19.8201 26.0747 19.9148 26.1339 19.9999C26.2271 20.1342 26.351 20.2442 26.4954 20.3207C26.6398 20.3973 26.8004 20.4382 26.9639 20.4399C27.0625 20.4379 27.1603 20.4211 27.2539 20.3899C33.0472 18.5896 39.2505 18.5896 45.0439 20.3899C45.2668 20.4592 45.507 20.4481 45.7226 20.3585C45.9382 20.269 46.1155 20.1067 46.2239 19.8999C46.2532 19.8495 46.2767 19.7958 46.2939 19.7399C46.3136 19.682 46.3237 19.6212 46.3239 19.5599C46.3389 19.4739 46.3389 19.386 46.3239 19.2999C46.3364 19.2787 46.3433 19.2546 46.3439 19.2299V10.7599C46.3438 10.6252 46.3163 10.4918 46.263 10.368C46.2097 10.2442 46.1317 10.1326 46.0339 10.0399ZM44.3439 18.1299C38.9773 16.6981 33.3287 16.7016 27.9639 18.1399V11.7599C28.1839 11.7599 28.4439 11.7499 28.7239 11.7299C30.7639 11.6099 34.0839 11.1599 36.1539 9.48994C38.2239 11.1599 41.5439 11.6099 43.5839 11.7299C43.8639 11.7499 44.1239 11.7599 44.3439 11.7599V18.1299Z" fill="black"/>
<path d="M36.6299 11.7119V13.1539H38.0719V14.1689H36.6299V15.6109H35.6149V14.1699H34.1729V13.1549H35.6149V11.7129L36.6299 11.7119ZM36.6299 10.7119H35.6149C35.3496 10.7119 35.0953 10.8173 34.9078 11.0048C34.7202 11.1923 34.6149 11.4467 34.6149 11.7119V12.1539H34.1729C33.9076 12.1539 33.6533 12.2593 33.4658 12.4468C33.2782 12.6343 33.1729 12.8887 33.1729 13.1539V14.1689C33.1729 14.4341 33.2782 14.6885 33.4658 14.876C33.6533 15.0636 33.9076 15.1689 34.1729 15.1689H34.6149V15.6109C34.6149 15.8761 34.7202 16.1305 34.9078 16.318C35.0953 16.5056 35.3496 16.6109 35.6149 16.6109H36.6299C36.8951 16.6109 37.1494 16.5056 37.337 16.318C37.5245 16.1305 37.6299 15.8761 37.6299 15.6109V15.1689H38.0719C38.3371 15.1689 38.5914 15.0636 38.779 14.876C38.9665 14.6885 39.0719 14.4341 39.0719 14.1689V13.1539C39.0719 12.8887 38.9665 12.6343 38.779 12.4468C38.5914 12.2593 38.3371 12.1539 38.0719 12.1539H37.6299V11.7119C37.6299 11.4467 37.5245 11.1923 37.337 11.0048C37.1494 10.8173 36.8951 10.7119 36.6299 10.7119ZM42.2559 29.0699C42.2559 29.4655 42.1386 29.8522 41.9188 30.1811C41.699 30.51 41.3867 30.7663 41.0212 30.9177C40.6558 31.069 40.2536 31.1087 39.8657 31.0315C39.4777 30.9543 39.1214 30.7638 38.8416 30.4841C38.5619 30.2044 38.3715 29.8481 38.2943 29.4601C38.2171 29.0721 38.2567 28.67 38.4081 28.3045C38.5595 27.9391 38.8158 27.6267 39.1447 27.407C39.4736 27.1872 39.8603 27.0699 40.2559 27.0699C40.7863 27.0699 41.295 27.2806 41.6701 27.6557C42.0451 28.0308 42.2559 28.5395 42.2559 29.0699ZM34.2559 29.0699C34.2559 29.4655 34.1386 29.8522 33.9188 30.1811C33.699 30.51 33.3867 30.7663 33.0212 30.9177C32.6558 31.069 32.2536 31.1087 31.8657 31.0315C31.4777 30.9543 31.1214 30.7638 30.8416 30.4841C30.5619 30.2044 30.3715 29.8481 30.2943 29.4601C30.2171 29.0721 30.2567 28.67 30.4081 28.3045C30.5595 27.9391 30.8158 27.6267 31.1447 27.407C31.4736 27.1872 31.8603 27.0699 32.2559 27.0699C32.7863 27.0699 33.295 27.2806 33.6701 27.6557C34.0451 28.0308 34.2559 28.5395 34.2559 29.0699ZM36.2549 39.0729C35.0545 39.0613 33.8737 38.7673 32.8079 38.2149C32.6903 38.1561 32.5855 38.0748 32.4994 37.9755C32.4133 37.8763 32.3476 37.761 32.3061 37.6363C32.2645 37.5117 32.2479 37.3801 32.2572 37.249C32.2666 37.1179 32.3016 36.9899 32.3604 36.8724C32.4191 36.7549 32.5005 36.6501 32.5997 36.564C32.699 36.4779 32.8143 36.4122 32.9389 36.3706C33.0636 36.3291 33.1952 36.3125 33.3263 36.3218C33.4574 36.3311 33.5853 36.3661 33.7029 36.4249C34.4872 36.8478 35.3643 37.0692 36.2554 37.0692C37.1464 37.0692 38.0235 36.8478 38.8079 36.4249C38.9254 36.3661 39.0534 36.3311 39.1844 36.3218C39.3155 36.3125 39.4471 36.3291 39.5718 36.3706C39.6965 36.4122 39.8117 36.4779 39.911 36.564C40.0103 36.6501 40.0916 36.7549 40.1504 36.8724C40.2091 36.9899 40.2442 37.1179 40.2535 37.249C40.2628 37.3801 40.2462 37.5117 40.2047 37.6363C40.1631 37.761 40.0974 37.8763 40.0113 37.9755C39.9252 38.0748 39.8204 38.1561 39.7029 38.2149C38.6367 38.7671 37.4555 39.0607 36.2549 39.0719" fill="black"/>
<path d="M36.2551 45.605C29.4521 45.605 23.9171 38.798 23.9171 30.431L23.7971 29.059C23.7859 28.9282 23.8005 28.7964 23.8402 28.6712C23.8799 28.5459 23.9439 28.4298 24.0285 28.3293C24.1131 28.2288 24.2167 28.146 24.3333 28.0856C24.4499 28.0251 24.5773 27.9882 24.7081 27.977C24.8393 27.9646 24.9715 27.9784 25.0973 28.0177C25.223 28.057 25.3396 28.121 25.4403 28.2059C25.5409 28.2908 25.6236 28.395 25.6835 28.5123C25.7434 28.6296 25.7793 28.7577 25.7891 28.889L25.9131 30.346C25.9171 37.696 30.5551 43.605 36.2551 43.605C41.9551 43.605 46.5941 37.695 46.5941 30.431C46.5941 29.9644 46.5751 29.5027 46.5371 29.046C46.5266 28.9151 46.542 28.7834 46.5824 28.6584C46.6228 28.5334 46.6874 28.4176 46.7726 28.3176C46.8577 28.2176 46.9617 28.1353 47.0787 28.0755C47.1956 28.0157 47.3232 27.9795 47.4541 27.969C47.5851 27.9585 47.7168 27.9739 47.8418 28.0143C47.9667 28.0547 48.0825 28.1193 48.1826 28.2045C48.2826 28.2896 48.3648 28.3936 48.4246 28.5106C48.4844 28.6275 48.5206 28.7551 48.5311 28.886C48.5725 29.394 48.5935 29.909 48.5941 30.431C48.5941 38.798 43.0601 45.605 36.2551 45.605Z" fill="black"/>
<path d="M47.307 30.28C46.8618 30.2769 46.4308 30.1232 46.084 29.844C45.3586 29.1425 44.851 28.2467 44.622 27.264C44.5166 27.3207 44.4069 27.3692 44.294 27.409C42.828 27.922 41.05 26.775 39.808 25.714C39.7557 25.7622 39.7002 25.807 39.642 25.848C38.592 26.593 36.718 25.9 34.982 24.915C34.9498 24.9495 34.9158 24.9822 34.88 25.013C34.519 25.326 33.703 26.026 29.938 23.707C28.926 25.798 26.966 29.427 25.228 30.17C24.9806 30.2814 24.6991 30.2903 24.4452 30.1947C24.1913 30.0991 23.9855 29.9069 23.873 29.66C23.7246 29.3093 23.5934 28.9515 23.48 28.588C22.9305 27.0105 22.8204 25.3134 23.1615 23.6782C23.5025 22.0429 24.2818 20.5313 25.416 19.305C25.6526 19.0569 25.9066 18.826 26.176 18.614C26.3849 18.4535 26.6486 18.3819 26.9099 18.4148C27.1713 18.4477 27.4091 18.5823 27.5717 18.7895C27.7344 18.9966 27.8087 19.2596 27.7786 19.5212C27.7485 19.7829 27.6164 20.0221 27.411 20.187C27.215 20.3414 27.0302 20.5095 26.858 20.69C26.0179 21.6048 25.4303 22.7224 25.1529 23.933C24.8756 25.1437 24.918 26.4057 25.276 27.595C26.6021 25.8108 27.7182 23.8797 28.602 21.84C28.6615 21.7077 28.7491 21.5899 28.8587 21.4948C28.9683 21.3997 29.0972 21.3296 29.2366 21.2894C29.376 21.2492 29.5224 21.2397 29.6658 21.2617C29.8092 21.2838 29.9461 21.3367 30.067 21.417C31.0381 22.0698 32.0616 22.6411 33.127 23.125C33.1418 22.9518 33.2014 22.7855 33.3001 22.6425C33.3987 22.4994 33.5329 22.3845 33.6894 22.3091C33.846 22.2337 34.0195 22.2004 34.1929 22.2125C34.3662 22.2246 34.5334 22.2816 34.678 22.378C35.7859 23.1565 37.0086 23.757 38.302 24.158C38.2945 24.118 38.2855 24.0783 38.275 24.039C38.2195 23.8234 38.2375 23.5955 38.3261 23.3914C38.4147 23.1872 38.5689 23.0184 38.7643 22.9118C38.9597 22.8051 39.185 22.7667 39.4047 22.8026C39.6243 22.8385 39.8257 22.9467 39.977 23.11C41.307 24.543 43.071 25.717 43.629 25.523C43.744 25.483 43.978 25.154 44.046 24.199C44.0637 23.9498 44.1742 23.7162 44.3556 23.5444C44.537 23.3727 44.7762 23.2751 45.026 23.271C45.275 23.2704 45.5156 23.3612 45.7021 23.5261C45.8886 23.6911 46.0081 23.9188 46.038 24.166C46.1503 25.4841 46.4949 26.7719 47.056 27.97C47.4812 27.1267 47.7005 26.1947 47.696 25.2503C47.6915 24.306 47.4632 23.3761 47.03 22.537C46.6789 21.8218 46.1863 21.1852 45.582 20.666C45.4445 20.5501 45.2999 20.4429 45.149 20.345C45.038 20.2747 44.942 20.1833 44.8664 20.0759C44.7907 19.9685 44.737 19.8473 44.7082 19.7192C44.6794 19.591 44.6761 19.4585 44.6986 19.3291C44.721 19.1997 44.7687 19.0759 44.839 18.965C44.9093 18.854 45.0007 18.758 45.1081 18.6823C45.2154 18.6067 45.3366 18.5529 45.4648 18.5242C45.5929 18.4954 45.7255 18.4921 45.8549 18.5146C45.9843 18.537 46.108 18.5847 46.219 18.655C46.4424 18.7995 46.6567 18.9575 46.861 19.128C48.345 20.4066 49.3158 22.1793 49.5942 24.1183C49.8725 26.0573 49.4394 28.0315 48.375 29.676L48.312 29.771C48.1411 30.0192 47.883 30.1938 47.589 30.26C47.4956 30.2733 47.4013 30.28 47.307 30.28ZM24.917 60.805C24.1259 60.805 23.3525 60.5704 22.6947 60.1308C22.0369 59.6913 21.5242 59.0666 21.2215 58.3357C20.9187 57.6048 20.8395 56.8005 20.9939 56.0246C21.1482 55.2487 21.5292 54.5359 22.0886 53.9765C22.648 53.4171 23.3607 53.0362 24.1366 52.8818C24.9126 52.7275 25.7168 52.8067 26.4477 53.1094C27.1786 53.4122 27.8033 53.9249 28.2429 54.5827C28.6824 55.2405 28.917 56.0138 28.917 56.805C28.9159 57.8655 28.4942 58.8823 27.7443 59.6322C26.9943 60.3821 25.9775 60.8039 24.917 60.805ZM24.917 54.805C24.5214 54.805 24.1348 54.9223 23.8059 55.142C23.477 55.3618 23.2206 55.6741 23.0692 56.0396C22.9179 56.4051 22.8783 56.8072 22.9554 57.1951C23.0326 57.5831 23.2231 57.9395 23.5028 58.2192C23.7825 58.4989 24.1389 58.6894 24.5268 58.7665C24.9148 58.8437 25.3169 58.8041 25.6824 58.6527C26.0478 58.5013 26.3602 58.245 26.5799 57.9161C26.7997 57.5872 26.917 57.2005 26.917 56.805C26.9162 56.2748 26.7052 55.7665 26.3303 55.3916C25.9554 55.0167 25.4472 54.8058 24.917 54.805Z" fill="black"/>
<path d="M24.9159 54.8049C24.6921 54.8045 24.4748 54.729 24.2989 54.5905C24.1231 54.452 23.9988 54.2584 23.9459 54.0409C23.8859 53.7959 22.5329 48.0009 26.4759 43.9089C26.5671 43.8143 26.6761 43.7387 26.7965 43.6862C26.917 43.6338 27.0466 43.6056 27.1779 43.6032C27.3093 43.6008 27.4398 43.6243 27.562 43.6724C27.6843 43.7205 27.7959 43.7922 27.8904 43.8834C27.985 43.9746 28.0607 44.0835 28.1131 44.204C28.1656 44.3244 28.1938 44.454 28.1961 44.5854C28.1985 44.7167 28.175 44.8472 28.1269 44.9695C28.0788 45.0917 28.0071 45.2033 27.9159 45.2979C24.7279 48.6049 25.8769 53.5189 25.8889 53.5679C25.9247 53.7151 25.9265 53.8685 25.8943 54.0166C25.8621 54.1646 25.7966 54.3034 25.7029 54.4224C25.6092 54.5415 25.4897 54.6377 25.3533 54.7038C25.217 54.7698 25.0674 54.8051 24.9159 54.8049ZM55.0719 60.9219C54.9276 60.9228 54.7848 60.8922 54.6535 60.8325C54.5221 60.7727 54.4053 60.6851 54.3111 60.5757C54.217 60.4663 54.1477 60.3378 54.1081 60.199C54.0686 60.0602 54.0596 59.9145 54.0819 59.7719C54.0939 59.6919 55.2419 51.6459 49.7689 48.8959C49.6515 48.8369 49.5469 48.7554 49.461 48.656C49.3751 48.5566 49.3096 48.4413 49.2683 48.3166C49.227 48.1918 49.2106 48.0602 49.2202 47.9292C49.2297 47.7982 49.265 47.6703 49.3239 47.5529C49.3829 47.4355 49.4644 47.3309 49.5638 47.245C49.6632 47.1591 49.7786 47.0936 49.9033 47.0522C50.028 47.0109 50.1596 46.9946 50.2906 47.0041C50.4217 47.0137 50.5495 47.0489 50.6669 47.1079C57.4469 50.5139 56.1179 59.6859 56.0589 60.0749C56.0224 60.3106 55.9029 60.5255 55.7219 60.6808C55.541 60.8361 55.3104 60.9216 55.0719 60.9219ZM36.1719 51.5149H36.0679L36.0269 51.5139C33.6549 51.4819 31.3529 50.6839 28.3759 48.8669C28.1591 48.7245 28.0061 48.5035 27.9491 48.2505C27.8922 47.9974 27.9358 47.7321 28.0708 47.5106C28.2057 47.2891 28.4214 47.1287 28.6724 47.0633C28.9234 46.9979 29.19 47.0325 29.4159 47.1599C32.1009 48.7989 34.1149 49.5049 36.1309 49.5149C38.3806 49.406 40.5568 48.6798 42.4209 47.4159C42.5341 47.3492 42.6592 47.3054 42.7893 47.2871C42.9193 47.2687 43.0517 47.2762 43.1789 47.309C43.3061 47.3418 43.4255 47.3994 43.5305 47.4784C43.6354 47.5574 43.7237 47.6563 43.7904 47.7694C43.8572 47.8825 43.9009 48.0077 43.9193 48.1377C43.9376 48.2678 43.9301 48.4002 43.8973 48.5274C43.8645 48.6545 43.8069 48.774 43.728 48.8789C43.649 48.9838 43.5501 49.0722 43.4369 49.1389C41.2941 50.5604 38.809 51.3806 36.2409 51.5139L36.1719 51.5149ZM17.1929 60.9219C16.9546 60.9214 16.7243 60.8357 16.5436 60.6804C16.3628 60.5252 16.2434 60.3104 16.2069 60.0749C16.1439 59.6629 14.7389 49.9409 22.2269 46.8199C22.4717 46.7178 22.7471 46.7171 22.9924 46.818C23.2377 46.9189 23.4328 47.1131 23.5349 47.3579C23.637 47.6027 23.6377 47.878 23.5368 48.1233C23.4359 48.3686 23.2417 48.5638 22.9969 48.6659C16.9599 51.1829 18.1709 59.6859 18.1839 59.7729C18.2061 59.9154 18.197 60.061 18.1574 60.1997C18.1177 60.3384 18.0485 60.4668 17.9543 60.576C17.8602 60.6853 17.7434 60.7728 17.6121 60.8325C17.4809 60.8922 17.3372 60.9227 17.1929 60.9219Z" fill="black"/>
<path d="M45.3702 61.8529C45.3362 61.8529 45.3032 61.8509 45.2702 61.8479C45.0067 61.8218 44.7643 61.6924 44.5961 61.4878C44.428 61.2833 44.3478 61.0204 44.3732 60.7569L44.4432 60.0099C44.1921 59.8835 43.9666 59.7116 43.7782 59.5029C42.4152 58.0189 42.7622 54.6109 42.8772 53.7469C42.8602 52.2969 43.5072 49.8129 45.9272 49.1089C45.5595 47.7251 44.9179 46.4291 44.0402 45.2979C43.856 45.1069 43.7552 44.8506 43.76 44.5854C43.7647 44.3201 43.8747 44.0676 44.0657 43.8834C44.2566 43.6992 44.5129 43.5984 44.7782 43.6032C45.0435 43.608 45.296 43.7179 45.4802 43.9089C47.2382 45.7309 48.1262 49.5369 48.1632 49.6989C48.196 49.8426 48.1966 49.9919 48.165 50.1359C48.1333 50.2799 48.0703 50.4152 47.9802 50.532C47.8902 50.6487 47.7755 50.7442 47.6442 50.8114C47.513 50.8787 47.3685 50.916 47.2212 50.9209C44.9362 50.9969 44.8692 53.3149 44.8782 53.7789C44.8792 53.8334 44.8759 53.8879 44.8682 53.9419C44.7149 55.0384 44.7213 56.1513 44.8872 57.2459C44.9902 57.1205 45.1229 57.0227 45.2732 56.9614C45.4236 56.9001 45.5868 56.8773 45.7482 56.8949C46.012 56.9202 46.255 57.0492 46.4238 57.2536C46.5925 57.458 46.6732 57.721 46.6482 57.9849L46.5332 59.1899C46.5353 59.2393 46.534 59.2887 46.5292 59.3379L46.3642 60.9539C46.3389 61.2002 46.2232 61.4284 46.0394 61.5943C45.8556 61.7601 45.6168 61.8519 45.3692 61.8519" fill="black"/>
<path d="M49.4119 61.853C49.1641 61.8528 48.9253 61.7606 48.7417 61.5943C48.558 61.428 48.4427 61.1995 48.4179 60.953L48.2539 59.337C48.2491 59.2892 48.2477 59.241 48.2499 59.193L48.1349 57.984C48.1223 57.8533 48.1357 57.7214 48.1741 57.5959C48.2126 57.4704 48.2754 57.3537 48.359 57.2525C48.4426 57.1512 48.5453 57.0675 48.6612 57.006C48.7772 56.9444 48.9042 56.9064 49.0349 56.894C49.1961 56.8763 49.3592 56.8991 49.5094 56.9604C49.6596 57.0217 49.7921 57.1195 49.8949 57.245C50.0605 56.1507 50.0666 55.0381 49.9129 53.942C49.9052 53.8863 49.9018 53.8302 49.9029 53.774C49.9129 53.315 49.8449 50.997 47.5599 50.921C47.426 50.9206 47.2936 50.8934 47.1705 50.8409C47.0473 50.7883 46.936 50.7116 46.8431 50.6153C46.7501 50.519 46.6775 50.405 46.6294 50.28C46.5813 50.1551 46.5589 50.0218 46.5633 49.888C46.5677 49.7542 46.5989 49.6227 46.6551 49.5012C46.7113 49.3797 46.7913 49.2707 46.8904 49.1807C46.9895 49.0907 47.1057 49.0215 47.232 48.9773C47.3584 48.933 47.4923 48.9145 47.6259 48.923C51.0629 49.036 51.9229 52.077 51.9039 53.747C52.0179 54.611 52.3659 58.018 51.0039 59.504C50.8143 59.712 50.5883 59.8835 50.3369 60.01L50.4079 60.758C50.433 61.0214 50.3527 61.284 50.1845 61.4883C50.0164 61.6926 49.7742 61.8219 49.5109 61.848C49.478 61.8511 49.4449 61.8528 49.4119 61.853ZM35.9139 60.923C35.7291 60.923 35.5478 60.872 35.3902 60.7754C35.2326 60.6789 35.1048 60.5407 35.0209 60.376L29.3639 49.243C29.3037 49.1259 29.2673 48.998 29.2567 48.8667C29.2461 48.7355 29.2615 48.6034 29.302 48.4781C29.3426 48.3528 29.4075 48.2368 29.493 48.1367C29.5786 48.0365 29.683 47.9543 29.8004 47.8946C29.9178 47.835 30.0458 47.7991 30.1771 47.789C30.3084 47.779 30.4404 47.795 30.5655 47.8361C30.6907 47.8772 30.8064 47.9426 30.9062 48.0286C31.0059 48.1145 31.0877 48.2193 31.1469 48.337L36.8049 59.47C36.8823 59.6223 36.9194 59.792 36.9126 59.9627C36.9058 60.1335 36.8554 60.2996 36.7661 60.4453C36.6769 60.591 36.5518 60.7115 36.4027 60.7951C36.2537 60.8787 36.0848 60.9227 35.9139 60.923Z" fill="black"/>
<path d="M35.9122 60.9231C35.7405 60.923 35.5716 60.8787 35.422 60.7945C35.2724 60.7102 35.1469 60.5888 35.0578 60.442C34.9687 60.2953 34.9189 60.128 34.9132 59.9563C34.9074 59.7847 34.946 59.6145 35.0252 59.4621L40.6832 48.5601C40.8055 48.3247 41.0162 48.1475 41.2691 48.0676C41.522 47.9876 41.7963 48.0113 42.0317 48.1336C42.2671 48.2559 42.4442 48.4666 42.5242 48.7195C42.6042 48.9724 42.5805 49.2467 42.4582 49.4821L36.8012 60.3841C36.7167 60.5468 36.589 60.6831 36.4322 60.7782C36.2755 60.8733 36.0956 60.9234 35.9122 60.9231Z" fill="black"/>
</svg>
