<svg width="22" height="22" viewBox="0 0 22 22" fill="none" xmlns="http://www.w3.org/2000/svg">
<path fill-rule="evenodd" clip-rule="evenodd" d="M5.61 0.00100005H5.737C6.088 0.00100005 6.314 0.00100003 6.535 0.021C7.48662 0.109948 8.38928 0.483905 9.125 1.094C9.295 1.236 9.455 1.396 9.704 1.644L10.28 2.221C11.126 3.066 11.451 3.382 11.827 3.591C12.045 3.712 12.276 3.808 12.516 3.877C12.929 3.994 13.382 4.001 14.578 4.001H15.003C16.276 4.001 17.303 4.001 18.114 4.103C18.955 4.209 19.67 4.435 20.258 4.963C20.356 5.051 20.45 5.145 20.538 5.243C21.067 5.831 21.292 6.546 21.398 7.387C21.5 8.199 21.5 9.225 21.5 10.498V12.808C21.5 14.645 21.5 16.101 21.347 17.24C21.189 18.412 20.857 19.361 20.109 20.11C19.36 20.858 18.411 21.19 17.239 21.348C16.099 21.501 14.644 21.501 12.806 21.501H8.694C6.856 21.501 5.4 21.501 4.261 21.348C3.089 21.19 2.14 20.858 1.391 20.11C0.643 19.361 0.311 18.412 0.153 17.24C0 16.1 0 14.645 0 12.807V5.611C0 4.814 1.49012e-08 4.308 0.082 3.871C0.258842 2.93162 0.714985 2.06745 1.3908 1.39146C2.06662 0.715461 2.93067 0.25909 3.87 0.082C4.308 1.49012e-08 4.814 0 5.61 0M5.7 1.5C4.783 1.5 4.429 1.503 4.147 1.556C3.50483 1.67739 2.91417 1.98957 2.45213 2.45179C1.9901 2.914 1.67815 3.50478 1.557 4.147C1.503 4.429 1.5 4.783 1.5 5.7V12.751C1.5 14.658 1.502 16.013 1.64 17.041C1.775 18.046 2.029 18.626 2.452 19.049C2.875 19.472 3.455 19.726 4.461 19.861C5.489 19.999 6.843 20.001 8.75 20.001H12.75C14.657 20.001 16.012 19.999 17.04 19.861C18.045 19.726 18.625 19.472 19.048 19.049C19.471 18.626 19.725 18.046 19.86 17.04C19.998 16.013 20 14.658 20 12.751V10.549C20 9.213 19.999 8.282 19.91 7.574C19.823 6.885 19.664 6.514 19.423 6.246C19.37 6.18706 19.3139 6.13099 19.255 6.078C18.987 5.837 18.615 5.678 17.927 5.591C17.22 5.502 16.288 5.501 14.952 5.501H14.468C13.42 5.501 12.744 5.501 12.105 5.319C11.755 5.219 11.416 5.079 11.097 4.902C10.517 4.578 10.039 4.101 9.297 3.359L9.22 3.281L8.67 2.731C8.50939 2.56313 8.34156 2.40231 8.167 2.249C7.6639 1.83183 7.04671 1.57603 6.396 1.515C6.16431 1.50027 5.93209 1.4946 5.7 1.5ZM11 8.751C11 8.55209 11.079 8.36132 11.2197 8.22067C11.3603 8.08002 11.5511 8.001 11.75 8.001H16.75C16.9489 8.001 17.1397 8.08002 17.2803 8.22067C17.421 8.36132 17.5 8.55209 17.5 8.751C17.5 8.94991 17.421 9.14068 17.2803 9.28133C17.1397 9.42198 16.9489 9.501 16.75 9.501H11.75C11.5511 9.501 11.3603 9.42198 11.2197 9.28133C11.079 9.14068 11 8.94991 11 8.751Z" fill="#557AFF"/>
</svg>
