<svg width="24" height="24" viewBox="0 0 24 24" fill="none" xmlns="http://www.w3.org/2000/svg">
<path d="M6 10.0001C5.99915 8.92094 6.2478 7.85623 6.72652 6.88911C7.20525 5.92199 7.9011 5.07865 8.7597 4.42496C9.6183 3.77128 10.6164 3.32495 11.676 3.12085C12.7357 2.91675 13.8282 2.9604 14.8682 3.2484C15.9081 3.53639 16.8674 4.06093 17.6712 4.78104C18.4749 5.50114 19.1012 6.39731 19.5012 7.39955C19.9013 8.40178 20.0642 9.48293 19.9772 10.5585C19.8903 11.6342 19.5558 12.6751 19 13.6001C18.4315 14.3581 17.7581 15.0315 17 15.6001C16.1137 16.4348 15.4297 17.4609 15 18.6001C14.6897 19.1865 14.2535 19.697 13.7228 20.0951C13.192 20.4933 12.5798 20.7691 11.93 20.9029C11.2802 21.0367 10.6088 21.0251 9.96393 20.869C9.31908 20.7129 8.71673 20.4162 8.2 20.0001" stroke="black" stroke-width="1.5" stroke-linecap="round" stroke-linejoin="round"/>
<path d="M10.0002 10.0001C9.99421 9.49822 10.1142 9.00285 10.3493 8.55936C10.5843 8.11587 10.9269 7.73844 11.3456 7.46165C11.7643 7.18485 12.2458 7.01753 12.7459 6.97502C13.246 6.9325 13.7488 7.01614 14.2082 7.21829C14.6676 7.42043 15.069 7.73462 15.3755 8.13206C15.6821 8.52951 15.884 8.99752 15.9628 9.49322C16.0416 9.98892 15.9948 10.4965 15.8266 10.9694C15.6584 11.4423 15.3743 11.8655 15.0002 12.2001" stroke="black" stroke-width="1.5" stroke-linecap="round" stroke-linejoin="round"/>
</svg>
