<svg width="24" height="24" viewBox="0 0 24 24" fill="none" xmlns="http://www.w3.org/2000/svg">
<path d="M17.5 12.0001C18.9587 12.0001 20.3577 12.5795 21.3891 13.611C22.4206 14.6424 23 16.0414 23 17.5001C23 18.9588 22.4206 20.3577 21.3891 21.3892C20.3577 22.4206 18.9587 23.0001 17.5 23.0001C16.0414 23.0001 14.6424 22.4206 13.611 21.3892C12.5795 20.3577 12 18.9588 12 17.5001C12 16.0414 12.5795 14.6424 13.611 13.611C14.6424 12.5795 16.0414 12.0001 17.5 12.0001ZM12 1.99707C17.524 1.99707 22.002 6.47507 22.002 11.9991C22.002 12.2621 21.992 12.5231 21.972 12.7811C21.5319 12.3633 21.0354 12.0092 20.497 11.7291C20.4443 10.0715 19.9079 8.46554 18.9539 7.10902C17.9999 5.75249 16.6699 4.70463 15.1278 4.09451C13.5857 3.48438 11.8988 3.33865 10.2749 3.67524C8.65106 4.01184 7.16108 4.81607 5.98854 5.98888C4.816 7.16168 4.01211 8.65184 3.67589 10.2758C3.33966 11.8998 3.48578 13.5866 4.09626 15.1286C4.70673 16.6706 5.75489 18.0003 7.11164 18.954C8.46839 19.9077 10.0745 20.4437 11.732 20.4961C12.012 21.0361 12.367 21.5321 12.782 21.9701C12.525 21.9901 12.264 22.0001 12 22.0001C6.47605 22.0001 1.99805 17.5221 1.99805 11.9991C1.99805 6.47607 6.47605 1.99807 12 1.99807M17.5 13.9981L17.41 14.0061C17.3101 14.0243 17.2182 14.0726 17.1464 14.1444C17.0745 14.2162 17.0263 14.3082 17.008 14.4081L17 14.4981V16.9981L14.498 17.0001L14.408 17.0081C14.3081 17.0263 14.2162 17.0746 14.1444 17.1464C14.0725 17.2182 14.0243 17.3102 14.006 17.4101L13.998 17.5001L14.006 17.5901C14.0243 17.69 14.0725 17.782 14.1444 17.8538C14.2162 17.9256 14.3081 17.9738 14.408 17.9921L14.498 18.0001H17V20.5041L17.008 20.5941C17.0265 20.6938 17.0748 20.7856 17.1466 20.8572C17.2184 20.9288 17.3103 20.9769 17.41 20.9951L17.5 21.0041L17.59 20.9951C17.69 20.9768 17.7819 20.9286 17.8537 20.8568C17.9256 20.785 17.9738 20.693 17.992 20.5931L18 20.5031V17.9991L20.503 18.0001L20.593 17.9921C20.693 17.9738 20.7849 17.9256 20.8567 17.8538C20.9286 17.782 20.9768 17.69 20.995 17.5901L21.004 17.5001L20.996 17.4101C20.9777 17.31 20.9293 17.218 20.8573 17.1461C20.7853 17.0743 20.6931 17.0261 20.593 17.0081L20.503 17.0001H18V14.5001L17.992 14.4101C17.974 14.31 17.9258 14.2178 17.854 14.1458C17.7822 14.0738 17.6901 14.0254 17.59 14.0071L17.5 13.9981ZM8.46205 14.7831C9.11879 15.6191 10.0506 16.1952 11.092 16.4091C11.0067 16.9076 10.9802 17.4144 11.013 17.9191C9.53741 17.6752 8.20663 16.8875 7.28305 15.7111C7.15999 15.5547 7.10407 15.3559 7.12761 15.1583C7.15115 14.9608 7.2522 14.7806 7.40855 14.6576C7.56489 14.5345 7.76372 14.4786 7.96129 14.5021C8.15886 14.5257 8.33899 14.6267 8.46205 14.7831ZM9.00005 8.75007C9.16711 8.74534 9.33342 8.77417 9.48915 8.83483C9.64488 8.8955 9.78686 8.98678 9.90669 9.10328C10.0265 9.21977 10.1218 9.35911 10.1868 9.51306C10.2519 9.66701 10.2854 9.83244 10.2854 9.99957C10.2854 10.1667 10.2519 10.3321 10.1868 10.4861C10.1218 10.64 10.0265 10.7794 9.90669 10.8959C9.78686 11.0124 9.64488 11.1036 9.48915 11.1643C9.33342 11.225 9.16711 11.2538 9.00005 11.2491C8.67478 11.2399 8.36592 11.1042 8.1391 10.8709C7.91229 10.6375 7.7854 10.325 7.7854 9.99957C7.7854 9.67417 7.91229 9.3616 8.1391 9.12828C8.36592 8.89495 8.67478 8.75927 9.00005 8.75007ZM15 8.75007C15.1671 8.74534 15.3334 8.77417 15.4891 8.83483C15.6449 8.8955 15.7869 8.98678 15.9067 9.10328C16.0265 9.21977 16.1218 9.35911 16.1868 9.51306C16.2519 9.66701 16.2854 9.83244 16.2854 9.99957C16.2854 10.1667 16.2519 10.3321 16.1868 10.4861C16.1218 10.64 16.0265 10.7794 15.9067 10.8959C15.7869 11.0124 15.6449 11.1036 15.4891 11.1643C15.3334 11.225 15.1671 11.2538 15 11.2491C14.6748 11.2399 14.3659 11.1042 14.1391 10.8709C13.9123 10.6375 13.7854 10.325 13.7854 9.99957C13.7854 9.67417 13.9123 9.3616 14.1391 9.12828C14.3659 8.89495 14.6748 8.75927 15 8.75007Z" fill="black"/>
</svg>
