<svg width="24" height="24" viewBox="0 0 24 24" fill="none" xmlns="http://www.w3.org/2000/svg">
<path d="M22.2468 9.17821C22.1694 8.93232 22.0201 8.71522 21.8183 8.55483C21.6165 8.39444 21.3713 8.29811 21.1143 8.27821L15.5399 7.79633C15.5062 7.79302 15.474 7.78063 15.4468 7.76049C15.4195 7.74035 15.3983 7.71321 15.3852 7.68196L13.2074 2.49195C13.1065 2.25519 12.9383 2.05331 12.7236 1.91141C12.5089 1.7695 12.2573 1.69385 11.9999 1.69385C11.7426 1.69385 11.4909 1.7695 11.2762 1.91141C11.0615 2.05331 10.8933 2.25519 10.7924 2.49195L8.61459 7.68196C8.60155 7.71321 8.58027 7.74035 8.55304 7.76049C8.5258 7.78063 8.49362 7.79302 8.45991 7.79633L2.88553 8.27821C2.62851 8.29811 2.38332 8.39444 2.1815 8.55483C1.97968 8.71522 1.83046 8.93232 1.75303 9.17821C1.67103 9.42444 1.66387 9.68945 1.73245 9.93976C1.80103 10.1901 1.94228 10.4144 2.13834 10.5845L6.36741 14.2735C6.3933 14.2965 6.41253 14.3261 6.42309 14.359C6.43365 14.392 6.43514 14.4273 6.42741 14.461L5.15616 19.9463C5.0969 20.1989 5.1138 20.4633 5.20474 20.7063C5.29568 20.9492 5.45657 21.1598 5.66709 21.3113C5.87435 21.4643 6.12269 21.5515 6.38005 21.5619C6.63741 21.5722 6.89196 21.5052 7.11084 21.3695L11.9024 18.4632C11.9306 18.4458 11.963 18.4365 11.9962 18.4365C12.0293 18.4365 12.0617 18.4458 12.0899 18.4632L16.8815 21.3695C17.1026 21.5049 17.3589 21.5717 17.618 21.5616C17.8772 21.5515 18.1275 21.4648 18.3374 21.3126C18.5473 21.1603 18.7074 20.9493 18.7975 20.7061C18.8876 20.463 18.9037 20.1986 18.8437 19.9463L17.5762 14.4591C17.5684 14.4254 17.5699 14.3902 17.5805 14.3572C17.591 14.3242 17.6103 14.2946 17.6362 14.2716L21.8652 10.5826C22.0603 10.4122 22.2006 10.188 22.2685 9.93812C22.3364 9.68822 22.3288 9.42382 22.2468 9.17821ZM21.1218 9.7332L16.8927 13.4223C16.7125 13.5791 16.5785 13.7821 16.5052 14.0094C16.4318 14.2367 16.4219 14.4797 16.4765 14.7123L17.744 20.1995C17.7533 20.2363 17.7513 20.2752 17.738 20.3108C17.7248 20.3465 17.701 20.3773 17.6699 20.3991C17.6417 20.4217 17.6071 20.4347 17.571 20.4362C17.5349 20.4377 17.4993 20.4277 17.4693 20.4076L12.6777 17.5013C12.4734 17.3772 12.239 17.3115 11.9999 17.3115C11.7608 17.3115 11.5264 17.3772 11.3221 17.5013L6.53053 20.4076C6.50055 20.4277 6.46492 20.4377 6.42884 20.4362C6.39275 20.4347 6.3581 20.4217 6.32991 20.3991C6.29876 20.3773 6.275 20.3465 6.26177 20.3108C6.24854 20.2752 6.24648 20.2363 6.25584 20.1995L7.52334 14.7123C7.57791 14.4797 7.56799 14.2367 7.49464 14.0094C7.42129 13.7821 7.28729 13.5791 7.10709 13.4223L2.87803 9.7332C2.84911 9.70861 2.82833 9.67581 2.81846 9.63915C2.80858 9.60249 2.81007 9.56369 2.82272 9.52789C2.83219 9.49224 2.85272 9.46052 2.88135 9.43727C2.90999 9.41402 2.94526 9.40045 2.98209 9.39852L8.55741 8.91664C8.79609 8.89631 9.02466 8.81104 9.21834 8.67007C9.41202 8.52911 9.56343 8.33783 9.65616 8.11696L11.834 2.92695C11.8491 2.89474 11.8731 2.86751 11.9032 2.84843C11.9332 2.82935 11.9681 2.81922 12.0037 2.81922C12.0392 2.81922 12.0741 2.82935 12.1042 2.84843C12.1342 2.86751 12.1582 2.89474 12.1733 2.92695L14.3437 8.11696C14.4361 8.3373 14.5869 8.52823 14.7799 8.66915C14.9729 8.81008 15.2006 8.89565 15.4387 8.91664L21.014 9.39852C21.0508 9.40045 21.0861 9.41402 21.1147 9.43727C21.1433 9.46052 21.1639 9.49224 21.1733 9.52789C21.1864 9.56333 21.1885 9.60189 21.1793 9.63852C21.1701 9.67516 21.1501 9.70816 21.1218 9.7332Z" fill="#BD93FC"/>
</svg>
