<svg width="24" height="24" viewBox="0 0 24 24" fill="none" xmlns="http://www.w3.org/2000/svg">
<path d="M21.9844 10.7232L17.7563 14.4132L19.0229 19.9069C19.0899 20.1941 19.0708 20.4947 18.9679 20.7711C18.865 21.0475 18.6829 21.2874 18.4444 21.4609C18.206 21.6344 17.9216 21.7337 17.627 21.7464C17.3323 21.7592 17.0405 21.6848 16.7879 21.5326L11.9963 18.6263L7.21507 21.5326C6.96248 21.6848 6.67062 21.7592 6.37598 21.7464C6.08134 21.7337 5.797 21.6344 5.5585 21.4609C5.32 21.2874 5.13793 21.0475 5.03505 20.7711C4.93217 20.4947 4.91305 20.1941 4.98007 19.9069L6.24476 14.4188L2.01569 10.7232C1.79202 10.5303 1.63027 10.2756 1.55075 9.99113C1.47122 9.70666 1.47746 9.40504 1.56867 9.1241C1.65988 8.84315 1.83201 8.59539 2.06347 8.41188C2.29493 8.22838 2.57542 8.11729 2.86976 8.09256L8.44413 7.60974L10.6201 2.41974C10.7337 2.14742 10.9254 1.9148 11.1709 1.75117C11.4165 1.58755 11.705 1.50024 12.0001 1.50024C12.2952 1.50024 12.5836 1.58755 12.8292 1.75117C13.0748 1.9148 13.2664 2.14742 13.3801 2.41974L15.5626 7.60974L21.1351 8.09256C21.4294 8.11729 21.7099 8.22838 21.9414 8.41188C22.1728 8.59539 22.3449 8.84315 22.4362 9.1241C22.5274 9.40504 22.5336 9.70666 22.4541 9.99113C22.3746 10.2756 22.2128 10.5303 21.9891 10.7232H21.9844Z" fill="#BD93FC"/>
</svg>
