<svg width="24" height="24" viewBox="0 0 24 24" fill="#e5e5e5" xmlns="http://www.w3.org/2000/svg">
<path d="M11.4997 2.5C10.9267 4.73 10.9267 6.3865 11.4997 7.469C12.3592 9.0925 14.3497 9.99 11.7867 12.1555C9.22374 14.3215 6.62524 12.504 5.02074 12.504C3.41674 12.504 2.01074 14.3105 2.01074 17C2.01074 18.793 2.34074 20.293 2.99974 21.5" stroke="black" stroke-width="1.5" stroke-linecap="round" stroke-linejoin="round"/>
<path d="M14.9917 2.5C14.2712 5.1645 14.4352 6.8545 15.4842 7.57C17.0582 8.6425 17.1787 6.402 20.0702 7.735C22.9617 9.068 22.2102 13.7155 20.5467 16.108C18.8837 18.5 15.3337 20.9175 12.0037 20.5C8.67416 20.0825 7.43616 16.01 7.00766 16.01C6.57916 16.01 5.67366 16.0225 5.49666 17.7085C5.37866 18.8325 5.71416 20.0965 6.50166 21.5" stroke="black" stroke-width="1.5" stroke-linecap="round" stroke-linejoin="round"/>
<path d="M17.8223 14.145C17.5333 15.001 17.0448 15.669 16.3573 16.15C15.6698 16.631 14.7973 16.914 13.7388 17" stroke="black" stroke-width="1.5" stroke-linecap="round"/>
</svg>
