<svg width="23" height="24" viewBox="0 0 23 24" fill="none" xmlns="http://www.w3.org/2000/svg">
<path d="M7.89773 0.643352C10.4633 -0.237407 13.253 -0.213182 15.8029 0.711996C17.2032 1.2363 18.4862 2.03196 19.5783 3.0533C19.2072 3.45032 18.8158 3.82137 18.4373 4.20725C17.7175 4.92585 16.9983 5.64197 16.2797 6.35561C15.5633 5.67044 14.6968 5.16219 13.7491 4.87143C12.5365 4.50528 11.2465 4.48021 10.0205 4.79897C8.79458 5.11772 7.68013 5.76799 6.79943 6.67842C6.03068 7.46047 5.4485 8.40605 5.09632 9.44458L1.25043 6.46693C2.62703 3.73707 5.01052 1.64893 7.89773 0.643352Z" fill="#E33629"/>
<path d="M0.230044 9.41674C0.436604 8.39223 0.779797 7.40009 1.25042 6.46692L5.09632 9.45199C4.59335 10.9336 4.59335 12.5398 5.09632 14.0214C3.81497 15.0109 2.53301 16.0053 1.25042 17.0046C0.0726283 14.6602 -0.286578 11.989 0.230044 9.41674Z" fill="#F8BD00"/>
<path d="M11.7343 9.53735H22.7767C23.1542 11.6095 23.052 13.7407 22.478 15.7672C21.9497 17.6308 20.9235 19.3151 19.5096 20.6391C18.2685 19.6706 17.0218 18.7096 15.7806 17.7412C16.3959 17.3261 16.9211 16.7911 17.3247 16.1682C17.7283 15.5453 18.002 14.8473 18.1293 14.1161H11.7343C11.7325 12.5911 11.7343 11.0642 11.7343 9.53735Z" fill="#587DBD"/>
<path d="M1.24854 17.0047C2.53112 16.0152 3.81308 15.0208 5.09443 14.0215C5.59016 15.4764 6.53299 16.7373 7.78823 17.6243C8.57105 18.1779 9.46071 18.5621 10.4004 18.7523C11.3263 18.9245 12.2759 18.9245 13.2018 18.7523C14.125 18.5963 15.0053 18.2487 15.7861 17.7319C17.0273 18.7004 18.274 19.6614 19.5152 20.6298C18.1569 21.8649 16.5012 22.726 14.7101 23.1288C12.7332 23.5936 10.673 23.5713 8.70657 23.0639C7.15133 22.6486 5.69864 21.9166 4.43954 20.9137C3.10697 19.8555 2.01852 18.5221 1.24854 17.0047Z" fill="#319F43"/>
</svg>
