<svg width="24" height="24" viewBox="0 0 24 24" fill="none" xmlns="http://www.w3.org/2000/svg">
<path d="M6.75 12.75H3C2.80109 12.75 2.61032 12.671 2.46967 12.5303C2.32902 12.3897 2.25 12.1989 2.25 12C2.25 11.8011 2.32902 11.6103 2.46967 11.4697C2.61032 11.329 2.80109 11.25 3 11.25H6.34875L7.62562 9.33375C7.69409 9.23087 7.78691 9.14651 7.89584 9.08816C8.00477 9.0298 8.12643 8.99927 8.25 8.99927C8.37357 8.99927 8.49523 9.0298 8.60416 9.08816C8.71309 9.14651 8.80591 9.23087 8.87438 9.33375L11.25 12.8962L12.1256 11.5837C12.1942 11.481 12.287 11.3968 12.396 11.3386C12.5049 11.2803 12.6265 11.2499 12.75 11.25H15C15.1989 11.25 15.3897 11.329 15.5303 11.4697C15.671 11.6103 15.75 11.8011 15.75 12C15.75 12.1989 15.671 12.3897 15.5303 12.5303C15.3897 12.671 15.1989 12.75 15 12.75H13.1512L11.8744 14.6662C11.8059 14.7691 11.7131 14.8535 11.6042 14.9118C11.4952 14.9702 11.3736 15.0007 11.25 15.0007C11.1264 15.0007 11.0048 14.9702 10.8958 14.9118C10.7869 14.8535 10.6941 14.7691 10.6256 14.6662L8.25 11.1019L7.37438 12.4144C7.30604 12.5175 7.21328 12.6021 7.10434 12.6606C6.99541 12.7192 6.87368 12.7499 6.75 12.75ZM16.6875 3C14.7516 3 13.0566 3.8325 12 5.23969C10.9434 3.8325 9.24844 3 7.3125 3C5.77146 3.00174 4.29404 3.61468 3.20436 4.70436C2.11468 5.79404 1.50174 7.27146 1.5 8.8125V9.02344C1.50622 9.22235 1.5912 9.41065 1.73624 9.5469C1.88129 9.68316 2.07453 9.75622 2.27344 9.75C2.47235 9.74378 2.66065 9.6588 2.7969 9.51376C2.93316 9.36871 3.00622 9.17547 3 8.97656V8.8125C3.00149 7.66921 3.45632 6.57317 4.26475 5.76475C5.07317 4.95632 6.16921 4.50149 7.3125 4.5C9.13594 4.5 10.6669 5.47125 11.3062 7.03125C11.3628 7.16881 11.4589 7.28646 11.5824 7.36926C11.7059 7.45206 11.8513 7.49627 12 7.49627C12.1487 7.49627 12.2941 7.45206 12.4176 7.36926C12.5411 7.28646 12.6372 7.16881 12.6937 7.03125C13.3331 5.46844 14.8641 4.5 16.6875 4.5C17.8308 4.50149 18.9268 4.95632 19.7353 5.76475C20.5437 6.57317 20.9985 7.66921 21 8.8125C21 13.8384 13.71 18.3891 12 19.3875C10.9847 18.7959 8.00344 16.95 5.74875 14.4928C5.61424 14.3461 5.42695 14.2589 5.22811 14.2502C5.02926 14.2416 4.83514 14.3124 4.68844 14.4469C4.54174 14.5814 4.45449 14.7687 4.44587 14.9675C4.43726 15.1664 4.50799 15.3605 4.6425 15.5072C7.56469 18.6947 11.4797 20.8209 11.6447 20.91C11.7539 20.9688 11.876 20.9995 12 20.9995C12.124 20.9995 12.2461 20.9688 12.3553 20.91C12.7697 20.6869 22.5 15.375 22.5 8.8125C22.4983 7.27146 21.8853 5.79404 20.7956 4.70436C19.706 3.61468 18.2285 3.00174 16.6875 3Z" fill="black"/>
</svg>
