<svg width="13" height="16" viewBox="0 0 13 16" fill="none" xmlns="http://www.w3.org/2000/svg">
<path d="M3.23993 0.084726L2.52293 0.300726C1.88451 0.493255 1.31437 0.864152 0.879622 1.36976C0.444873 1.87538 0.163608 2.49466 0.0689304 3.15473C-0.22807 5.22273 0.43593 7.64073 2.03693 10.4137C3.63393 13.1797 5.39193 14.9617 7.32693 15.7417C7.94866 15.9923 8.62926 16.0591 9.28783 15.9341C9.9464 15.8091 10.5552 15.4976 11.0419 15.0367L11.5839 14.5227C11.9359 14.1896 12.1549 13.7401 12.2004 13.2576C12.2458 12.7752 12.1145 12.2927 11.8309 11.8997L10.4749 10.0197C10.2916 9.76592 10.0334 9.57584 9.73666 9.47613C9.43987 9.37643 9.11931 9.37209 8.81993 9.46373L6.76893 10.0907L6.71593 10.1007C6.48993 10.1337 5.96793 9.64473 5.31793 8.51873C4.63793 7.34073 4.49793 6.65173 4.68493 6.47373L5.72793 5.50073C6.10934 5.14519 6.36989 4.67917 6.47301 4.16804C6.57613 3.65692 6.51666 3.12634 6.30293 2.65073L5.64093 1.17973C5.44187 0.737069 5.08863 0.381904 4.64706 0.180438C4.20549 -0.0210273 3.70473 -0.0550453 3.23993 0.084726ZM4.73093 1.58973L5.39093 3.06073C5.51947 3.34596 5.55541 3.66429 5.49371 3.971C5.43201 4.27771 5.27576 4.55739 5.04693 4.77073L4.00093 5.74473C3.33093 6.37873 3.55293 7.46073 4.45293 9.01873C5.29893 10.4847 6.07093 11.2087 6.90093 11.0827L7.02493 11.0567L9.11293 10.4197C9.21274 10.3891 9.31964 10.3904 9.41863 10.4236C9.51763 10.4568 9.60376 10.5201 9.66493 10.6047L11.0209 12.4847C11.1629 12.6812 11.2287 12.9225 11.2061 13.1639C11.1835 13.4052 11.074 13.6301 10.8979 13.7967L10.3549 14.3107C10.0073 14.6398 9.57247 14.8621 9.10218 14.9512C8.63189 15.0404 8.14589 14.9927 7.70193 14.8137C6.00393 14.1297 4.39893 12.5027 2.90393 9.91373C1.40493 7.31873 0.797931 5.11173 1.05893 3.29673C1.12649 2.82516 1.32738 2.38271 1.63795 2.02147C1.94852 1.66024 2.35583 1.39525 2.81193 1.25773L3.52893 1.04173C3.76139 0.971875 4.01132 0.988956 4.23211 1.08978C4.4529 1.19061 4.62949 1.36831 4.72893 1.58973" fill="#E5E5E5"/>
</svg>
