<svg width="16" height="16" viewBox="0 0 16 16" fill="none" xmlns="http://www.w3.org/2000/svg">
<g clip-path="url(#clip0_353_24257)">
<path d="M15.9999 7.99986C15.9813 6.95741 15.757 5.9289 15.3398 4.97339C14.9226 4.01787 14.3208 3.15417 13.5689 2.43186C12.4616 1.36181 11.0615 0.644606 9.54617 0.371156C8.03081 0.0977063 6.46837 0.280324 5.0569 0.895862C4.1339 1.30086 3.2989 1.88786 2.6079 2.60786C1.9169 3.32786 1.3709 4.18186 1.0109 5.10486C0.289271 6.95891 0.330614 9.02319 1.1259 10.8469C1.5179 11.7389 2.0869 12.5469 2.7839 13.2149C3.4809 13.8829 4.3069 14.4099 5.1999 14.7579C6.09149 15.1043 7.04259 15.2719 7.9989 15.2509C9.41445 15.2234 10.7901 14.7768 11.9517 13.9674C13.1134 13.158 14.0089 12.0223 14.5249 10.7039C14.7278 10.1818 14.8671 9.63722 14.9399 9.08186L14.9989 9.08386C15.1372 9.08379 15.2739 9.05504 15.4005 8.99943C15.5271 8.94382 15.6408 8.86256 15.7344 8.76079C15.828 8.65901 15.8995 8.53893 15.9443 8.40813C15.9892 8.27733 16.0064 8.13866 15.9949 8.00086H15.9989L15.9999 7.99986ZM14.4109 10.6549C14.0439 11.4859 13.5129 12.2389 12.8609 12.8609C12.2089 13.4829 11.4389 13.9729 10.6069 14.2949C9.77599 14.6166 8.88966 14.7709 7.9989 14.7489C7.12052 14.7299 6.25453 14.5377 5.45058 14.1833C4.64662 13.829 3.92052 13.3194 3.3139 12.6839C2.71568 12.0572 2.24675 11.3188 1.9339 10.5109C1.31237 8.90223 1.35408 7.11278 2.0499 5.53486C2.3919 4.76486 2.8859 4.06686 3.4909 3.49086C4.0959 2.91486 4.8119 2.46186 5.5829 2.16486C6.3539 1.86686 7.1789 1.72686 7.9989 1.74886C8.8189 1.77086 9.6279 1.95086 10.3669 2.28086C11.1069 2.60986 11.7769 3.08586 12.3299 3.66786C12.8829 4.24986 13.3179 4.93786 13.6019 5.67886C13.8856 6.41854 14.0205 7.20694 13.9989 7.99886H14.0029C13.9813 8.25872 14.062 8.51674 14.2279 8.71793C14.3938 8.91912 14.6317 9.04756 14.8909 9.07586C14.7945 9.61927 14.633 10.1491 14.4099 10.6539L14.4109 10.6549Z" fill="#082F4F"/>
</g>
<defs>
<clipPath id="clip0_353_24257">
<rect width="16" height="16" fill="white"/>
</clipPath>
</defs>
</svg>
