<svg width="24" height="24" viewBox="0 0 24 24" fill="none" xmlns="http://www.w3.org/2000/svg">
<g clip-path="url(#clip0_357_24267)">
<path d="M24.0001 12C23.9722 10.4364 23.6357 8.8936 23.0099 7.46032C22.3841 6.02705 21.4814 4.73149 20.3536 3.64804C18.6927 2.04296 16.5926 0.967153 14.3195 0.556978C12.0465 0.146804 9.70279 0.42073 7.5856 1.34404C6.2011 1.95154 4.9486 2.83204 3.9121 3.91204C2.8756 4.99204 2.0566 6.27304 1.5166 7.65754C0.43415 10.4386 0.496165 13.535 1.6891 16.2705C2.2771 17.6085 3.1306 18.8205 4.1761 19.8225C5.2216 20.8245 6.4606 21.615 7.8001 22.137C9.13749 22.6567 10.5641 22.908 11.9986 22.8765C14.1219 22.8354 16.1853 22.1654 17.9278 20.9513C19.6703 19.7373 21.0135 18.0337 21.7876 16.056C22.092 15.273 22.301 14.4561 22.4101 13.623L22.4986 13.626C22.706 13.6259 22.9111 13.5828 23.101 13.4994C23.2909 13.416 23.4615 13.2941 23.6019 13.1414C23.7423 12.9888 23.8495 12.8086 23.9167 12.6124C23.984 12.4162 24.0098 12.2082 23.9926 12.0015H23.9986L24.0001 12ZM21.6166 15.9825C21.0661 17.229 20.2696 18.3585 19.2916 19.2915C18.3136 20.2245 17.1586 20.9595 15.9106 21.4425C14.6642 21.9252 13.3347 22.1566 11.9986 22.1235C10.681 22.0951 9.38204 21.8068 8.17611 21.2752C6.97018 20.7437 5.88103 19.9794 4.9711 19.026C4.07376 18.086 3.37037 16.9784 2.9011 15.7665C1.9688 13.3536 2.03137 10.6694 3.0751 8.30254C3.5881 7.14754 4.3291 6.10054 5.2366 5.23654C6.1441 4.37254 7.2181 3.69304 8.3746 3.24754C9.5311 2.80054 10.7686 2.59054 11.9986 2.62354C13.2286 2.65654 14.4421 2.92654 15.5506 3.42154C16.6606 3.91504 17.6656 4.62904 18.4951 5.50204C19.3246 6.37504 19.9771 7.40704 20.4031 8.51854C20.8286 9.62805 21.031 10.8107 20.9986 11.9985H21.0046C20.9722 12.3883 21.0933 12.7754 21.3421 13.0771C21.5909 13.3789 21.9478 13.5716 22.3366 13.614C22.192 14.4291 21.9498 15.2239 21.6151 15.981L21.6166 15.9825Z" fill="#7C51C2"/>
</g>
<defs>
<clipPath id="clip0_357_24267">
<rect width="24" height="24" fill="white"/>
</clipPath>
</defs>
</svg>
