<svg width="24" height="24" viewBox="0 0 24 24" fill="#e5e5e5" xmlns="http://www.w3.org/2000/svg">
<g clip-path="url(#clip0_390_24302)">
<path d="M0 22.5H24M11 12.5L9.964 11.464C9.02686 10.5266 8.50028 9.25548 8.5 7.93V7.233C9.135 6.937 10.35 6.501 12 6.501C13.65 6.501 14.865 6.937 15.5 7.233V7.93C15.5003 9.25597 16.0273 10.5275 16.965 11.465L18 12.5M16 19.5H6.5V18.5C6.5 17.7044 6.81607 16.9413 7.37868 16.3787C7.94129 15.8161 8.70435 15.5 9.5 15.5C9.972 15.5 13.213 15.835 16.5 16.188C20.17 16.583 23.5 12 23.5 12M4.5 17.9C4.5 17.9 3.5 19.5 2.25 19.5C1.78587 19.5 1.34075 19.3156 1.01256 18.9874C0.684374 18.6592 0.5 18.2141 0.5 17.75C0.5 16.784 1.284 16.004 2.25 16.004C3.5 16.004 4.5 17.6 4.5 17.6V17.9ZM11.852 4.5C11.852 4.5 10.252 3.5 10.252 2.25C10.252 1.284 11.036 0.5 12.002 0.5C12.969 0.5 13.748 1.284 13.748 2.25C13.748 3.5 12.152 4.5 12.152 4.5H11.852Z" stroke="#000" stroke-width="1.5"/>
</g>
<defs>
<clipPath id="clip0_390_24302">
<rect width="24" height="24" fill="inherit"/>
</clipPath>
</defs>
</svg>
