<svg width="72" height="72" viewBox="0 0 72 72" fill="none" xmlns="http://www.w3.org/2000/svg">
<path d="M54 60.9V57C54 52 49.8 48 44.8 48C38.8 53 32.8 53 26.8 48C21.8 48 18 52 18 57V60.9H54Z" fill="#92D3F5"/>
<path d="M23.9998 36C21.9998 36 20.9998 24 23.9998 20C29.9998 12 41.9998 12 47.9998 20C50.9998 24 49.9998 36 47.9998 36" fill="#F1B31C"/>
<path d="M25 34C25 42 29.8 45.9 35.8 45.9C41.8 45.9 47 42 47 34C47 26 44 24 44 24C36 28 30 26 28 24C28 24 25 26 25 34Z" fill="#FCEA2B"/>
<path d="M24 36C22 36 21 24 24 20C30 12 42 12 48 20C51 24 50 36 48 36M54 60V56.9C54 51.9 49.8 47.9 44.8 47.9C38.8 52.9 32.8 52.9 26.8 47.9C21.8 47.9 18 51.9 18 56.9V60" stroke="black" stroke-width="2" stroke-linecap="round" stroke-linejoin="round"/>
<path d="M42 33C42 34.1 41.1 35 40 35C38.9 35 38 34.1 38 33C38 31.9 38.9 31 40 31C41.1 31 42 31.9 42 33ZM34 33C34 34.1 33.1 35 32 35C30.9 35 30 34.1 30 33C30 31.9 30.9 31 32 31C33.1 31 34 31.9 34 33Z" fill="black"/>
<path d="M25 34C25 42 29.8 45.9 35.8 45.9C41.8 45.9 47 42 47 34C47 26 44 24 44 24C36 28 30 26 28 24C28 24 25 26 25 34Z" stroke="black" stroke-width="2" stroke-linejoin="round"/>
<path d="M32.7998 39.2C34.6998 40.2 36.8998 40.2 38.7998 39.2" stroke="black" stroke-width="2" stroke-linecap="round" stroke-linejoin="round"/>
</svg>
